<svg version="1.1" id="Layer_1" xmlns="http://www.w3.org/2000/svg" xmlns:xlink="http://www.w3.org/1999/xlink" x="0px" y="0px"
	 width="100%" viewBox="0 0 300 300" enable-background="new 0 0 300 300" xml:space="preserve">
<path fill="#FAFAFA" opacity="1.000000" stroke="none" 
	d="
M173.000000,301.000000 
	C115.333344,301.000000 58.166687,301.000000 1.000023,301.000000 
	C1.000015,201.000031 1.000015,101.000053 1.000008,1.000063 
	C100.999947,1.000042 200.999893,1.000042 300.999878,1.000021 
	C300.999939,100.999939 300.999939,200.999878 300.999969,300.999908 
	C258.500000,301.000000 216.000000,301.000000 173.000000,301.000000 
M179.260345,114.990196 
	C178.512558,115.045876 177.764771,115.101555 176.117447,115.009140 
	C171.055542,114.940849 165.993637,114.872551 160.982162,114.124672 
	C183.812500,89.322708 206.642853,64.520752 230.019287,39.125534 
	C223.169312,39.125534 217.235626,39.125534 210.332764,39.009361 
	C182.896057,39.066936 155.459351,39.124512 127.182884,39.095528 
	C122.935509,39.389988 118.580193,40.389507 114.474121,39.760925 
	C111.048508,39.236504 110.303398,40.293301 109.305885,43.016590 
	C99.117867,70.830833 88.783142,98.591293 78.534157,126.383293 
	C76.286163,132.479141 74.215118,138.640274 71.754601,145.648605 
	C76.137833,145.447189 79.399605,145.297287 83.572525,145.456833 
	C92.976242,145.643082 102.379959,145.829330 111.490608,146.779846 
	C111.370903,147.090225 111.220634,147.392487 111.135811,147.712143 
	C103.129639,177.882782 95.111977,208.050430 87.191879,238.243683 
	C86.898209,239.363235 87.559372,240.733261 87.218513,242.469910 
	C85.579971,247.950027 83.941429,253.430145 82.302887,258.910278 
	C82.770073,259.236053 83.237259,259.561859 83.704445,259.887634 
	C91.744423,249.483597 99.784393,239.079544 108.348679,228.615265 
	C110.244431,226.794159 112.338295,225.137482 114.006454,223.127487 
	C142.379547,188.940277 170.704910,154.713409 199.016449,120.475182 
	C200.395035,118.807991 201.550308,116.956154 203.519058,114.195389 
	C198.777832,114.550941 195.370544,114.806458 191.214340,115.000946 
	C190.105591,115.194931 188.996841,115.388916 187.382599,115.666687 
	C187.049377,115.728836 186.716156,115.790993 186.117020,115.173531 
	C184.081985,115.133362 182.046951,115.093193 179.260345,114.990196 
M195.484222,35.003693 
	C173.103317,35.003693 150.722427,35.003693 128.341522,35.003693 
	C128.344421,35.239845 128.347305,35.475998 128.350189,35.712151 
	C154.849030,35.712151 181.347870,35.712151 207.846710,35.712151 
	C207.850830,35.476002 207.854950,35.239853 207.859070,35.003704 
	C204.064560,35.003704 200.270065,35.003704 195.484222,35.003693 
z"/>
<path fill="#1D1D1D" opacity="1.000000" stroke="none" 
	d="
M111.783676,146.015579 
	C102.379959,145.829330 92.976242,145.643082 83.214737,144.937866 
	C93.367088,120.191643 103.918121,95.981979 114.368744,71.729050 
	C119.024239,60.924961 123.477562,50.033756 128.022644,39.182091 
	C155.459351,39.124512 182.896057,39.066936 210.769638,39.422703 
	C195.530472,58.902988 179.854355,77.969887 164.178421,97.036919 
	C159.638824,102.558548 155.099777,108.080620 149.572571,114.804260 
	C154.428284,114.804260 157.680008,114.804260 160.931732,114.804260 
	C165.993637,114.872551 171.055542,114.940849 176.541245,115.487534 
	C175.702042,116.643585 174.479156,117.794853 173.168167,117.905899 
	C169.856766,118.186386 166.505707,117.998878 163.170547,117.998878 
	C168.939880,119.001320 174.708160,119.181068 180.458038,118.933495 
	C183.874069,118.786407 185.439392,119.911171 185.147461,123.716049 
	C184.409943,125.511597 183.825485,127.093201 182.851364,128.379791 
	C170.894226,144.172302 158.861801,159.907791 146.886337,175.686493 
	C137.257812,188.372925 127.624580,201.056534 118.108986,213.827484 
	C114.513885,218.652466 111.243034,223.719055 107.824371,228.675507 
	C99.784393,239.079544 91.744423,249.483597 83.704445,259.887634 
	C83.237259,259.561859 82.770073,259.236053 82.302887,258.910278 
	C83.941429,253.430145 85.579971,247.950027 87.891266,242.207306 
	C99.661537,210.100174 110.759048,178.255661 121.994408,146.015579 
	C117.961418,146.015579 114.872551,146.015579 111.783676,146.015579 
z"/>
<path fill="#08EEE6" opacity="1.000000" stroke="none" 
	d="
M127.602768,39.138809 
	C123.477562,50.033756 119.024239,60.924961 114.368744,71.729050 
	C103.918121,95.981979 93.367088,120.191643 82.759155,144.783157 
	C79.399605,145.297287 76.137833,145.447189 71.754601,145.648605 
	C74.215118,138.640274 76.286163,132.479141 78.534157,126.383293 
	C88.783142,98.591293 99.117867,70.830833 109.305885,43.016590 
	C110.303398,40.293301 111.048508,39.236504 114.474121,39.760925 
	C118.580193,40.389507 122.935509,39.389988 127.602768,39.138809 
z"/>
<path fill="#F50851" opacity="1.000000" stroke="none" 
	d="
M160.956940,114.464462 
	C157.680008,114.804260 154.428284,114.804260 149.572571,114.804260 
	C155.099777,108.080620 159.638824,102.558548 164.178421,97.036919 
	C179.854355,77.969887 195.530472,58.902988 211.254227,39.480789 
	C217.235626,39.125534 223.169312,39.125534 230.019287,39.125534 
	C206.642853,64.520752 183.812500,89.322708 160.956940,114.464462 
z"/>
<path fill="#F00E54" opacity="1.000000" stroke="none" 
	d="
M108.086533,228.645386 
	C111.243034,223.719055 114.513885,218.652466 118.108986,213.827484 
	C127.624580,201.056534 137.257812,188.372925 146.886337,175.686493 
	C158.861801,159.907791 170.894226,144.172302 182.851364,128.379791 
	C183.825485,127.093201 184.409943,125.511597 185.487030,123.637909 
	C187.181473,121.466919 188.564346,119.725098 190.129395,117.744095 
	C190.862152,116.690605 191.412704,115.876289 191.963257,115.061966 
	C195.370544,114.806458 198.777832,114.550941 203.519058,114.195389 
	C201.550308,116.956154 200.395035,118.807991 199.016449,120.475182 
	C170.704910,154.713409 142.379547,188.940277 114.006454,223.127487 
	C112.338295,225.137482 110.244431,226.794159 108.086533,228.645386 
z"/>
<path fill="#0EEBE2" opacity="1.000000" stroke="none" 
	d="
M111.637146,146.397705 
	C114.872551,146.015579 117.961418,146.015579 121.994408,146.015579 
	C110.759048,178.255661 99.661537,210.100174 88.169800,241.965622 
	C87.559372,240.733261 86.898209,239.363235 87.191879,238.243683 
	C95.111977,208.050430 103.129639,177.882782 111.135811,147.712143 
	C111.220634,147.392487 111.370903,147.090225 111.637146,146.397705 
z"/>
<path fill="#F1F1F1" opacity="1.000000" stroke="none" 
	d="
M195.979889,35.003700 
	C200.270065,35.003704 204.064560,35.003704 207.859070,35.003704 
	C207.854950,35.239853 207.850830,35.476002 207.846710,35.712151 
	C181.347870,35.712151 154.849030,35.712151 128.350189,35.712151 
	C128.347305,35.475998 128.344421,35.239845 128.341522,35.003693 
	C150.722427,35.003693 173.103317,35.003693 195.979889,35.003700 
z"/>
<path fill="#1D1517" opacity="1.000000" stroke="none" 
	d="
M189.947205,117.983276 
	C188.564346,119.725098 187.181473,121.466919 185.459015,123.286880 
	C185.439392,119.911171 183.874069,118.786407 180.458038,118.933495 
	C174.708160,119.181068 168.939880,119.001320 163.170547,117.998878 
	C166.505707,117.998878 169.856766,118.186386 173.168167,117.905899 
	C174.479156,117.794853 175.702042,116.643585 176.991013,115.561584 
	C177.764771,115.101555 178.512558,115.045876 179.928253,115.300140 
	C182.525101,115.691109 184.454010,115.772125 186.382935,115.853142 
	C186.716156,115.790993 187.049377,115.728836 187.557495,115.914932 
	C186.111694,119.640411 189.366516,117.184830 189.947205,117.983276 
z"/>
<path fill="#1D1D1D" opacity="1.000000" stroke="none" 
	d="
M186.249969,115.513336 
	C184.454010,115.772125 182.525101,115.691109 180.304047,115.331558 
	C182.046951,115.093193 184.081985,115.133362 186.249969,115.513336 
z"/>
<path fill="#1D1D1D" opacity="1.000000" stroke="none" 
	d="
M190.129395,117.744095 
	C189.366516,117.184830 186.111694,119.640411 187.810242,115.873039 
	C188.996841,115.388916 190.105591,115.194931 191.588806,115.031464 
	C191.412704,115.876289 190.862152,116.690605 190.129395,117.744095 
z"/>
</svg>